<svg id="Capa_1" enable-background="new 0 0 512 512" height="512" viewBox="0 0 512 512" width="512" xmlns="http://www.w3.org/2000/svg"><g><g><g fill="#9e9797"><circle cx="311.75" cy="75" r="67.5"/><circle cx="116.75" cy="75" r="67.5"/></g><g><g><path d="m325.052 439.431h-21.624c-8.284 0-15-6.716-15-15s6.716-15 15-15h21.624c25.557 0 46.349-20.792 46.349-46.349v-30.053c0-42.099 34.25-76.349 76.35-76.349 8.284 0 15 6.716 15 15s-6.716 15-15 15c-25.558 0-46.35 20.792-46.35 46.349v30.053c-.001 42.099-34.251 76.349-76.349 76.349z" fill="#766e6e"/></g><g fill="#766e6e"><path d="m333.481 504.5h-49.855c-9.762 0-17.676-7.914-17.676-17.676 0-9.762 7.914-17.676 17.676-17.676h28.503c15.658 0 28.351 12.693 28.351 28.351.001 3.867-3.133 7.001-6.999 7.001z"/><path d="m95.019 504.5h49.855c9.762 0 17.676-7.914 17.676-17.676 0-9.762-7.914-17.676-17.676-17.676h-28.504c-15.658 0-28.351 12.693-28.351 28.351 0 3.867 3.134 7.001 7 7.001z"/></g><path d="m226.601 504.5h-24.702c-66.424 0-116.053-60.707-102.474-125.346 10.842-51.611 30.862-100.884 59.119-145.502h111.411c28.257 44.618 48.277 93.891 59.119 145.502 13.58 64.639-36.049 125.346-102.473 125.346z" fill="#9e9797"/><path d="m309.748 390.316c8.439-9.478 12.876-19.87 15.081-29.392-3.911-15.349-8.654-30.456-14.181-45.269-2.184.431-7.964 1.872-12.994 6.995-5.482 5.582-6.635 12.034-6.924 14.174.527 2.987 2.637 18.468-7.513 29.867-4.841 5.437-10.788 8.076-14.923 9.333-9.386 2.852-14.684 12.774-11.832 22.16 2.329 7.665 9.373 12.603 16.99 12.603 1.71 0 3.449-.249 5.17-.772 12.184-3.703 22.948-10.515 31.126-19.699z" fill="#766e6e"/><path d="m118.747 390.316c-8.439-9.478-12.876-19.87-15.081-29.392 3.911-15.349 8.654-30.456 14.181-45.269 2.184.431 7.964 1.872 12.994 6.995 5.482 5.582 6.635 12.034 6.924 14.174-.527 2.987-2.637 18.468 7.513 29.867 4.841 5.437 10.788 8.076 14.923 9.333 9.386 2.852 14.684 12.774 11.832 22.16-2.329 7.665-9.373 12.603-16.99 12.603-1.71 0-3.449-.249-5.17-.772-12.184-3.703-22.947-10.515-31.126-19.699z" fill="#766e6e"/><g><g fill="#766e6e"><path d="m134.32 90.654c-16.753 17.275-24.943 36.384-29.011 50.861 3.721.636 7.539.985 11.441.985 37.279 0 67.5-30.221 67.5-67.5 0-5.083-.58-10.028-1.645-14.79-24.652 8.007-41.175 23.112-48.285 30.444z"/><path d="m246.002 59.746c-1.133 4.904-1.752 10.005-1.752 15.254 0 37.279 30.221 67.5 67.5 67.5 4.17 0 8.245-.398 12.206-1.122-6.826-27.394-22.175-45.65-24.051-47.822-16.692-19.326-37.138-28.987-53.903-33.81z"/><path d="m269.956 233.652h-111.411c-2.942 4.645-5.772 9.352-8.534 14.095 11.567 20.513 28.665 38.914 44.02 52.981 20.349 18.642 51.489 19.018 72.22.801 8.797-7.73 18.066-16.917 26.473-27.317-6.868-13.881-14.451-27.427-22.768-40.56z"/></g><path d="m214.25 78.714c-34.836.493-57.668 21.024-65.745 29.353-22.118 22.807-26.095 49.503-27.019 58.088v.001c-.003.056-.154 2.779-.154 5.36 0 56.636 68.51 109.88 87.875 123.798 3.052 2.194 7.13 2.301 10.289.264 19.635-12.656 87.673-61.059 87.673-124.063 0-2.748-.145-5.224-.171-5.642-1.955-31.29-20.407-53.236-22.294-55.42-27.329-31.639-66.893-31.79-70.454-31.739z" fill="#9e9797"/><path d="m214.25 259.935c-10.93 0-19.791 8.85-19.791 19.766 0 1.666.229 3.274.617 4.82 5.8 4.68 10.723 8.342 14.128 10.79 3.063 2.202 7.151 2.292 10.321.247 3.286-2.12 7.92-5.236 13.358-9.247.736-2.07 1.158-4.288 1.158-6.61 0-10.917-8.861-19.766-19.791-19.766z" fill="#e1d3ce"/></g><ellipse cx="214.25" cy="391.698" fill="#efe2dd" rx="51.822" ry="64.506"/><path d="m264.8 377.514c-7.146 3.982-10.814 12.523-8.339 20.669 1.336 4.396 4.225 7.888 7.881 10.073 1.125-5.285 1.731-10.833 1.731-16.558 0-4.875-.449-9.618-1.273-14.184z" fill="#e1d3ce"/><path d="m164.158 408.254c3.654-2.185 6.542-5.676 7.877-10.07 2.474-8.144-1.192-16.684-8.335-20.667-.823 4.565-1.272 9.307-1.272 14.181-.001 5.725.606 11.271 1.73 16.556z" fill="#e1d3ce"/><g><path d="m310.717 315.66c1.439 8.171 4.542 36.623-15.969 59.656-8.178 9.184-18.942 15.996-31.128 19.699-1.721.523-3.46.772-5.17.772-7.617 0-14.661-4.938-16.99-12.603-2.852-9.386 2.445-19.308 11.832-22.16 4.135-1.257 10.083-3.896 14.924-9.333 10.15-11.399 8.04-26.88 7.513-29.867z" fill="#9e9797"/></g><g><path d="m117.856 315.66c-1.439 8.171-4.542 36.623 15.969 59.656 8.178 9.184 18.942 15.996 31.128 19.699 1.721.523 3.46.772 5.17.772 7.617 0 14.661-4.938 16.99-12.603 2.852-9.386-2.445-19.308-11.832-22.16-4.135-1.257-10.083-3.896-14.924-9.333-10.15-11.399-8.04-26.88-7.513-29.867z" fill="#9e9797"/></g></g></g><path d="m190.557 165.314c3.76 1.496 8.191-.3 9.741-4.196 1.531-3.849-.348-8.21-4.196-9.742-5.126-2.04-10.517-3.073-16.027-3.073-.119 0-.24 0-.36.001-5.392.044-10.667 1.078-15.677 3.072-3.849 1.532-5.727 5.894-4.195 9.742 1.532 3.849 5.896 5.728 9.742 4.195 3.277-1.304 6.727-1.98 10.253-2.009 3.706-.033 7.293.647 10.719 2.01zm257.193 83.866c-46.234 0-83.85 37.615-83.85 83.85v30.05c0 16.404-10.316 30.735-25.096 36.343-.082-7.268-.88-14.6-2.394-21.814-7.705-36.708-20.465-73.443-37.081-107.001-1.838-3.712-6.34-5.23-10.05-3.392-3.712 1.839-5.23 6.338-3.392 10.05 4.74 9.568 9.183 19.439 13.204 29.338 1.525 3.754 2.98 7.541 4.401 11.341 1.321 8.407 3.188 32.693-14.345 52.384-7.262 8.154-16.843 14.209-27.706 17.511-.979.297-1.985.448-2.991.448-4.475 0-8.51-2.995-9.813-7.284-.797-2.623-.524-5.399.767-7.817s3.447-4.189 6.07-4.986c5.057-1.537 12.343-4.783 18.344-11.521 12.45-13.982 9.93-32.572 9.298-36.156-.718-4.079-4.604-6.806-8.688-6.085-4.079.719-6.804 4.608-6.084 8.688.258 1.465 2.29 14.573-5.729 23.579-.395.444-.805.852-1.219 1.248-11.115-17.622-28.569-28.262-47.146-28.262-18.553 0-35.995 10.621-47.118 28.215-.398-.384-.793-.775-1.174-1.203-8.019-9.005-5.986-22.113-5.729-23.579.72-4.079-2.005-7.969-6.084-8.688-4.075-.718-7.969 2.005-8.688 6.085-.632 3.584-3.152 22.175 9.297 36.156 6.001 6.739 13.289 9.985 18.345 11.521 5.415 1.646 8.481 7.39 6.837 12.804-1.304 4.289-5.339 7.284-9.814 7.284-1.006 0-2.012-.151-2.989-.447-.649-.197-1.293-.406-1.933-.623-.046-.018-.094-.03-.14-.047-10.011-3.418-18.839-9.211-25.634-16.842-17.777-19.963-15.612-44.654-14.292-52.727 1.381-3.685 2.795-7.357 4.275-10.999 7.026-17.305 15.233-34.235 24.428-50.477 25.488 28.392 54.128 47.544 56.28 48.965 2.374 1.568 5.427 1.656 7.885.235.981-.567 24.312-14.155 47.94-37.168 7.279-7.09 13.765-14.304 19.455-21.598 10.578 2.191 20.553 6.369 29.582 12.398 3.41 2.277 8.082 1.404 10.402-2.071 2.3-3.445 1.373-8.102-2.072-10.402-8.824-5.894-18.415-10.289-28.563-13.101 6.76-10.565 11.844-21.242 15.18-31.906 4.556.514 8.542 1.427 11.755 2.388 3.972 1.187 8.147-1.068 9.335-5.037 1.187-3.968-1.068-8.147-5.036-9.334-3.497-1.046-7.739-2.05-12.559-2.702 2.025-12.493 1.473-24.942-1.164-36.804 41.122-.274 74.494-33.802 74.494-74.987 0-41.355-33.645-75-75-75-41.012 0-74.422 33.093-74.974 73.976-20.725-4.63-29.426-3.614-45.047.205-.443-40.978-33.899-74.182-74.98-74.182-41.355 0-75 33.645-75 75 0 33.039 21.179 61.823 52.7 71.627 3.854 1.199 8.146-.932 9.39-4.934 1.229-3.956-.979-8.159-4.935-9.389-25.215-7.842-42.155-30.871-42.155-57.304 0-33.084 26.916-60 60-60 34.673 0 62.406 29.746 59.836 64.412-15.515 6.838-26.778 16.538-33.465 23.434-27.626 28.487-32.235 57.144-28.054 82.65-5.259.361-10.506 1.159-15.669 2.415-4.024.979-6.494 5.035-5.516 9.06.979 4.024 5.028 6.498 9.061 5.516 4.256-1.035 9.693-1.962 15.933-2.172 3.886 11.397 9.76 22.355 16.693 32.609-10.818 2.779-21.031 7.319-30.377 13.561-3.445 2.3-4.372 6.958-2.072 10.402 2.319 3.474 6.996 4.346 10.402 2.071 8.588-5.735 18.024-9.8 28.049-12.082.096-.022.193-.038.29-.06-23.117 40.586-40.182 85.152-49.77 130.793-6.223 29.624-.178 60.031 16.587 84.882-16.082 3.531-28.157 17.883-28.157 35.01 0 3.874 1.509 7.516 4.226 10.232 2.73 2.752 6.379 4.268 10.274 4.268h49.851c6.587 0 12.871-2.624 17.513-7.104 12.451 4.648 25.8 7.103 39.515 7.103h24.7c13.894 0 27.202-2.525 39.494-7.126 4.644 4.494 10.939 7.126 17.537 7.126h49.851c3.896 0 7.544-1.516 10.252-4.246 2.739-2.738 4.248-6.38 4.248-10.254 0-17.11-12.052-31.45-28.111-34.999 3.349-4.955 6.307-10.191 8.831-15.663 44.547-1.92 80.2-38.747 80.2-83.757v-30.05c0-21.422 17.428-38.85 38.85-38.85 12.406 0 22.5-10.093 22.5-22.5s-10.096-22.501-22.502-22.501zm-221.388 32.555c-4.94 3.585-9.066 6.331-11.869 8.126-2.899-2.073-7.254-5.284-12.486-9.441-.015-.239-.047-.482-.047-.719 0-6.764 5.514-12.266 12.291-12.266s12.291 5.502 12.291 12.266c-.001.677-.062 1.357-.18 2.034zm85.388-266.735c33.084 0 60 26.916 60 60s-26.916 60-60 60c-1.396 0-2.785-.05-4.16-.145-6.287-15.997-14.836-26.553-17.21-29.303-11.855-13.725-25.796-21.973-38.518-26.929-2.08-34.483 25.373-63.623 59.888-63.623zm-176.382 186.539c1.7.315 3.424.687 5.174 1.142 8.683 2.255 16.867 6.023 24.326 11.2 3.369 2.338 8.057 1.544 10.438-1.885 2.362-3.403 1.518-8.076-1.885-10.438-8.916-6.188-18.709-10.694-29.107-13.396-4.572-1.187-9.243-2.008-13.959-2.466-4.496-22.736-.925-47.188 23.535-72.409 20.13-20.757 52.659-33.954 87.711-22.482 12.884 4.217 25.174 10.363 37.428 24.55 1.365 1.58 10.331 12.36 15.988 28.807.037.113.074.226.117.337 4.636 11.972 5.641 28.195 3.186 41.668-4.42.227-9.084.821-13.942 1.949-10.646 2.472-20.556 7.032-29.454 13.554-3.341 2.449-4.064 7.142-1.615 10.483 2.466 3.364 7.171 4.043 10.482 1.616 7.254-5.316 15.321-9.031 23.979-11.042 2.16-.501 4.27-.863 6.333-1.13-3.738 10.214-9.119 19.841-15.37 28.739-6.663-.706-13.39-.738-20.105-.081-4.123.403-7.138 4.072-6.735 8.194s4.063 7.14 8.194 6.734c2.423-.237 4.846-.36 7.267-.387-8.892 10.185-18.488 19.05-27.222 26.27-3.624-10.814-13.853-18.632-25.88-18.632-11.44 0-21.253 7.073-25.303 17.069-7.969-7.008-16.674-15.347-24.924-24.62 1.464.067 2.928.157 4.392.3 4.123.411 7.791-2.612 8.194-6.734.402-4.123-2.612-7.791-6.735-8.194-5.965-.583-11.936-.608-17.863-.116-6.678-9.031-12.502-18.655-16.645-28.6zm58.92 183.825c3.739-12.309-2.417-25.303-13.879-30.409 8.38-12.818 20.61-20.265 33.841-20.265 13.024 0 25.466 7.613 33.836 20.3-11.412 5.131-17.533 18.093-13.801 30.374 3.177 10.458 12.502 17.548 23.351 17.89-1.833 11.448-6.372 21.902-13.184 30.08-8.254 9.909-18.979 15.366-30.202 15.366-11.224 0-21.95-5.459-30.205-15.372-6.81-8.178-11.348-18.628-13.18-30.071 10.88-.312 20.239-7.412 23.423-17.893zm-49.418 111.636h-49.345c.267-11.267 9.515-20.35 20.845-20.35h3.617c7.566 8.061 16.181 14.879 25.564 20.306-.226.015-.45.044-.681.044zm188.105 0h-49.345c-.253 0-.5-.03-.749-.048 9.529-5.504 18.168-12.361 25.654-20.302h3.595c11.33 0 20.578 9.083 20.845 20.35zm-106.375 0h-24.7c-61.877-.001-107.672-56.586-95.131-116.309 1.87-8.906 4.045-17.771 6.484-26.571 2.816 8.688 7.463 17.752 14.97 26.184 7.378 8.286 16.634 14.831 27.076 19.197 3.184 36.384 28.309 64.199 58.95 64.199 30.628 0 55.75-27.8 58.948-64.167 10.472-4.366 19.754-10.923 27.152-19.229 7.473-8.392 12.11-17.411 14.93-26.062 2.425 8.76 4.589 17.584 6.451 26.449 12.394 59.019-33.682 116.533-95.13 116.309zm221.15-217.82c-29.692 0-53.85 24.157-53.85 53.85v30.05c0 34.755-25.891 63.56-59.395 68.185 1.486-5.15 2.604-10.453 3.33-15.876 23.784-5.809 41.065-27.318 41.065-52.308v-30.05c0-37.964 30.886-68.85 68.85-68.85 4.136 0 7.5 3.364 7.5 7.5s-3.364 7.499-7.5 7.499zm-209.807-113.866c3.279-1.305 6.729-1.98 10.254-2.009.078-.001.157-.001.236-.001 3.604 0 7.131.676 10.482 2.01 3.76 1.497 8.192-.299 9.742-4.195 1.531-3.848-.347-8.21-4.195-9.742-5.236-2.084-10.73-3.099-16.389-3.072-5.391.044-10.664 1.077-15.676 3.071-3.849 1.531-5.728 5.893-4.196 9.742 1.533 3.849 5.897 5.727 9.742 4.196z"/></g></svg>