<svg height="638pt" viewBox="-20 -129 638.67144 638" width="638pt" xmlns="http://www.w3.org/2000/svg"><path d="m478.90625 132.8125c-4.785156.003906-9.5625.292969-14.3125.863281-12.894531-41.988281-51.628906-70.683593-95.550781-70.773437-10.933594-.011719-21.789063 1.804687-32.121094 5.363281-25.578125-55.308594-86.195313-85.367187-145.699219-72.25-59.511718 13.121094-101.867187 65.875-101.824218 126.808594.003906 10.53125 1.316406 21.019531 3.890624 31.222656-56.695312 8.65625-97.203124 59.46875-92.988281 116.667969 4.207031 57.203125 51.71875 101.542968 109.070313 101.796875h369.535156c66.191406 0 119.847656-53.660157 119.847656-119.851563s-53.65625-119.847656-119.847656-119.847656zm0 219.722656h-369.535156c-49.238282.214844-89.472656-39.253906-90.207032-88.488281-.730468-49.234375 38.304688-89.878906 87.53125-91.132813 3.195313-.089843 6.152344-1.703124 7.957032-4.339843 1.8125-2.640625 2.246094-5.980469 1.171875-8.992188-19.824219-56.730469 9.664062-118.855469 66.152343-139.367187 56.484376-20.511719 118.964844 8.226562 140.15625 64.460937.96875 2.609375 2.976563 4.691407 5.546876 5.753907 2.574218 1.0625 5.46875 1.003906 7.992187-.160157 10.457031-4.863281 21.84375-7.382812 33.371094-7.394531 38 .070312 70.722656 26.835938 78.3125 64.070312 1.085937 5.414063 6.359375 8.914063 11.765625 7.820313 6.511718-1.304687 13.136718-1.96875 19.785156-1.976563 55.160156 0 99.875 44.71875 99.875 99.871094 0 55.160156-44.714844 99.875-99.875 99.875zm0 0"/></svg>