<?xml version="1.0" encoding="UTF-8" standalone="no"?>
<svg
   xmlns:dc="http://purl.org/dc/elements/1.1/"
   xmlns:cc="http://creativecommons.org/ns#"
   xmlns:rdf="http://www.w3.org/1999/02/22-rdf-syntax-ns#"
   xmlns:svg="http://www.w3.org/2000/svg"
   xmlns="http://www.w3.org/2000/svg"
   xmlns:sodipodi="http://sodipodi.sourceforge.net/DTD/sodipodi-0.dtd"
   xmlns:inkscape="http://www.inkscape.org/namespaces/inkscape"
   inkscape:version="1.0 (4035a4fb49, 2020-05-01)"
   sodipodi:docname="ds.svg"
   id="svg16"
   viewBox="0 0 18 18"
   version="1.1"
   height="18"
   width="18">
  <metadata
     id="metadata22">
    <rdf:RDF>
      <cc:Work
         rdf:about="">
        <dc:format>image/svg+xml</dc:format>
        <dc:type
           rdf:resource="http://purl.org/dc/dcmitype/StillImage" />
        <dc:title></dc:title>
      </cc:Work>
    </rdf:RDF>
  </metadata>
  <defs
     id="defs20" />
  <sodipodi:namedview
     inkscape:current-layer="svg16"
     inkscape:window-maximized="1"
     inkscape:window-y="-8"
     inkscape:window-x="-8"
     inkscape:cy="16"
     inkscape:cx="16"
     inkscape:zoom="22.96875"
     showgrid="false"
     id="namedview18"
     inkscape:window-height="987"
     inkscape:window-width="1680"
     inkscape:pageshadow="2"
     inkscape:pageopacity="0"
     guidetolerance="10"
     gridtolerance="10"
     objecttolerance="10"
     borderopacity="1"
     bordercolor="#666666"
     pagecolor="#ffffff" />
  <g
     transform="translate(0,1.99994)"
     id="g2412">
    <path
       style="opacity:0.2"
       d="m 7.175781,1.0001205 c 0,0 -1.9804448,-0.04304 -4.0781238,1.4980465 C 0.9999789,4.03925 0,7.2290846 0,11.824339 c 0,0 2.223992,2.074982 5.4433602,2.175781 0,0 0.539546,-0.634246 0.976562,-1.181641 -1.849982,-0.547394 -2.550781,-2.185547 -2.550781,-2.185547 1.704525,0.952865 2.863326,1.350612 4.6308588,1.367188 1.767533,-0.01658 3.926335,-0.414323 5.630859,-1.367188 0,0 -0.700799,1.638153 -2.550781,2.185547 0.437016,0.547395 0.976563,1.181641 0.976563,1.181641 C 15.776009,13.899321 18,11.824339 18,11.824339 18,7.2290846 17.000022,4.03925 14.902344,2.498167 12.804665,0.95708035 10.824219,1.0001205 10.824219,1.0001205 l -0.146485,0.171875 c 2.622073,0.7346925 3.816407,2.3730465 3.816407,2.3730465 0,0 -0.320389,-0.171846 -0.859375,-0.402343 C 11.999968,2.357931 10.000043,2.000089 8.5,2.00012 6.999957,2.000089 6.0000342,2.357931 4.3652352,3.142699 c -0.538986,0.230497 -0.859375,0.402343 -0.859375,0.402343 0,0 1.194332,-1.638354 3.8164058,-2.3730465 z M 6.5000002,7.0001196 c 0.8381508,0 1.5145998,0.668208 1.4999998,1.5 0,0.831792 -0.661849,1.5000004 -1.4999998,1.5000004 -0.823442,0 -1.5,-0.6682084 -1.5,-1.5000004 0,-0.831792 0.661868,-1.5 1.5,-1.5 z m 4.9999998,0 c 0.838132,0 1.5,0.668208 1.5,1.5 0,0.831792 -0.676558,1.5000004 -1.5,1.5000004 -0.838151,0 -1.5,-0.6682084 -1.5,-1.5000004 -0.0146,-0.831792 0.661849,-1.5 1.5,-1.5 z"
       id="path12" />
    <path
       style="fill:#ffffff"
       d="m 7.175781,1.2045246e-4 c 0,0 -1.9804448,-0.0430400025 -4.0781238,1.49804654754 C 0.9999789,3.03925 0,6.229085 0,10.824339 c 0,0 2.223992,2.074982 5.4433602,2.175781 0,0 0.539546,-0.634246 0.976562,-1.181641 C 4.5699402,11.271085 3.8691412,9.6329316 3.8691412,9.6329316 5.5736662,10.585797 6.7324672,10.983544 8.5,11.00012 c 1.767533,-0.01658 3.926335,-0.414323 5.630859,-1.3671884 0,0 -0.700799,1.6381534 -2.550781,2.1855474 0.437016,0.547395 0.976563,1.181641 0.976563,1.181641 C 15.776009,12.899321 18,10.824339 18,10.824339 18,6.229085 17.000022,3.03925 14.902344,1.498167 12.804665,-0.04291965 10.824219,1.2045246e-4 10.824219,1.2045246e-4 L 10.677734,0.17199545 c 2.622073,0.7346925 3.816407,2.37304655 3.816407,2.37304655 0,0 -0.320389,-0.171846 -0.859375,-0.402343 C 11.999968,1.357931 10.000043,1.000089 8.5,1.00012 6.999957,1.000089 6.0000342,1.357931 4.3652352,2.142699 c -0.538986,0.230497 -0.859375,0.402343 -0.859375,0.402343 0,0 1.194332,-1.63835405 3.8164058,-2.37304655 z M 6.5000002,6.00012 C 7.338151,6.00012 8.0146,6.668328 8,7.5001196 c 0,0.831792 -0.661849,1.5 -1.4999998,1.5 -0.823442,0 -1.5,-0.668208 -1.5,-1.5 0,-0.8317916 0.661868,-1.4999996 1.5,-1.4999996 z m 4.9999998,0 c 0.838132,0 1.5,0.668208 1.5,1.4999996 0,0.831792 -0.676558,1.5 -1.5,1.5 -0.838151,0 -1.5,-0.668208 -1.5,-1.5 C 9.9854,6.668328 10.661849,6.00012 11.5,6.00012 Z"
       id="path14" />
  </g>
</svg>
